# xmcd
#
# Track frame offsets: 
#        150
#        24884
#        43033
#        82844
#        102472
#        133876
#        165015
#        181790
#        222191
#        244887
#        265911
#        289630
#        308554
#        330155
#
# Disc length: 4761 seconds
#
# Revision: 0
# Processed by: cddbd v1.5.2PL0 Copyright (c) Steve Scherf et al.
# Submitted via: ExactAudioCopy v0.95a5
#
DISCID=ac12970e
DTITLE=Various Artist - Blues On the Road  CD-3
DYEAR=2002
DGENRE=Blues
TTITLE0=MOODY MARSDEN - I Got a Mind to Get Even
TTITLE1=TINSLEY ELLIS - Just Dropped In
TTITLE2=JULIAN SAS - Blues for J.
TTITLE3=ROB TOGNONI - Dirty Occupation
TTITLE4=RHETT TYLER - Cold Wind Blowin'
TTITLE5=LITTLE JOHN CHRISLEY - Big Bad Boogie
TTITLE6=RORY GALLAGHER - The King of Zydeco
TTITLE7=MONSTER MIKE WELCH - My Emptiness
TTITLE8=CRAIG ERICKSON - Everybody's Business
TTITLE9=SMOKIN' JOE KUBEK - Worst Heartache
TTITLE10=JOHN CAMPBELL - Wiseblood
TTITLE11=FOGHAT - That's Alright Mama
TTITLE12=GENE DEER - Dream
TTITLE13=DAVE GOODMAN - Looks Ain't Everything
EXTD=
EXTT0=
EXTT1=
EXTT2=
EXTT3=
EXTT4=
EXTT5=
EXTT6=
EXTT7=
EXTT8=
EXTT9=
EXTT10=
EXTT11=
EXTT12=
EXTT13=
PLAYORDER=
